<svg xmlns="http://www.w3.org/2000/svg" viewBox="0 0 92.96 120.87"><defs>
<style>
@import url('https://fonts.googleapis.com/css?family=Lato&display=swap');
</style>
<style>.cls-1,.cls-3{opacity:0.27;}.cls-2,.cls-3{fill:#bec3d6;}.cls-4,.cls-5{fill:#8a6c93;}.cls-5{font-size:12px;font-family:Lato-Regular, Lato;}.cls-6{letter-spacing:-0.02em;}</style>
</defs><title>languages-group-1</title><g id="Layer_2" data-name="Layer 2"><g id="Layer_1-2" data-name="Layer 1"><g class="cls-1"><circle class="cls-2" cx="89.76" cy="19.14" r="2.82"/></g><path class="cls-3" d="M82.92,19.14a2.82,2.82,0,1,1-2.82-2.82A2.82,2.82,0,0,1,82.92,19.14Z"/><path class="cls-4" d="M73.26,19.14a2.82,2.82,0,1,1-2.82-2.82A2.82,2.82,0,0,1,73.26,19.14Z"/><circle class="cls-4" cx="60.78" cy="19.14" r="2.82"/><path class="cls-4" d="M53.94,19.14a2.82,2.82,0,1,1-2.82-2.82A2.82,2.82,0,0,1,53.94,19.14Z"/><circle class="cls-4" cx="41.46" cy="19.14" r="2.82"/><path class="cls-4" d="M34.62,19.14a2.82,2.82,0,1,1-2.82-2.82A2.82,2.82,0,0,1,34.62,19.14Z"/><circle class="cls-4" cx="22.14" cy="19.14" r="2.82"/><circle class="cls-4" cx="12.48" cy="19.14" r="2.82"/><path class="cls-4" d="M5.64,19.14a2.82,2.82,0,1,1-2.82-2.82A2.82,2.82,0,0,1,5.64,19.14Z"/><text class="cls-5" transform="translate(0 10.3)">HTML5 </text><circle class="cls-3" cx="89.76" cy="52.11" r="2.82"/><g class="cls-1"><path class="cls-2" d="M82.92,52.11a2.82,2.82,0,1,1-2.82-2.82A2.82,2.82,0,0,1,82.92,52.11Z"/></g><path class="cls-4" d="M73.26,52.11a2.82,2.82,0,1,1-2.82-2.82A2.82,2.82,0,0,1,73.26,52.11Z"/><path class="cls-4" d="M53.94,85.38a2.82,2.82,0,1,1-2.82-2.82A2.82,2.82,0,0,1,53.94,85.38Z"/><path class="cls-4" d="M93,19.07a2.82,2.82,0,1,1-2.82-2.82A2.83,2.83,0,0,1,93,19.07Z"/><path class="cls-4" d="M82.92,19.07a2.82,2.82,0,1,1-2.82-2.82A2.82,2.82,0,0,1,82.92,19.07Z"/><circle class="cls-4" cx="60.78" cy="52.11" r="2.82"/><circle class="cls-4" cx="41.46" cy="85.08" r="2.82"/><path class="cls-4" d="M53.94,52.11a2.82,2.82,0,1,1-2.82-2.82A2.82,2.82,0,0,1,53.94,52.11Z"/><circle class="cls-4" cx="41.46" cy="52.11" r="2.82"/><path class="cls-4" d="M34.62,52.11a2.82,2.82,0,1,1-2.82-2.82A2.82,2.82,0,0,1,34.62,52.11Z"/><circle class="cls-4" cx="22.14" cy="52.11" r="2.82"/><circle class="cls-4" cx="12.48" cy="52.11" r="2.82"/><path class="cls-4" d="M5.64,52.11a2.82,2.82,0,1,1-2.82-2.82A2.82,2.82,0,0,1,5.64,52.11Z"/><text class="cls-5" transform="translate(0 43.27)">CSS3 </text><g class="cls-1"><circle class="cls-2" cx="89.76" cy="85.08" r="2.82"/></g><g class="cls-1"><path class="cls-2" d="M82.92,85.08a2.82,2.82,0,1,1-2.82-2.82A2.82,2.82,0,0,1,82.92,85.08Z"/></g><path class="cls-3" d="M73.26,85.08a2.82,2.82,0,1,1-2.82-2.82A2.82,2.82,0,0,1,73.26,85.08Z"/><g class="cls-1"><circle class="cls-2" cx="60.78" cy="85.08" r="2.82"/></g><path class="cls-4" d="M34.62,85.08a2.82,2.82,0,1,1-2.82-2.82A2.82,2.82,0,0,1,34.62,85.08Z"/><path class="cls-4" d="M44.28,85.38a2.82,2.82,0,1,1-2.82-2.82A2.82,2.82,0,0,1,44.28,85.38Z"/><path class="cls-4" d="M53.94,85.38a2.82,2.82,0,1,1-2.82-2.82A2.82,2.82,0,0,1,53.94,85.38Z"/><circle class="cls-4" cx="22.14" cy="85.08" r="2.82"/><circle class="cls-4" cx="12.48" cy="85.08" r="2.82"/><path class="cls-4" d="M5.64,85.08a2.82,2.82,0,1,1-2.82-2.82A2.82,2.82,0,0,1,5.64,85.08Z"/><text class="cls-5" transform="translate(0 76.24)">J<tspan class="cls-6" x="5.33" y="0">a</tspan><tspan x="11.22" y="0">vaScript ES6 </tspan></text><g class="cls-1"><circle class="cls-2" cx="89.76" cy="118.05" r="2.82"/></g><g class="cls-1"><path class="cls-2" d="M82.92,118.05a2.82,2.82,0,1,1-2.82-2.82A2.82,2.82,0,0,1,82.92,118.05Z"/></g><g class="cls-1"><path class="cls-2" d="M73.26,118.05a2.82,2.82,0,1,1-2.82-2.82A2.82,2.82,0,0,1,73.26,118.05Z"/></g><circle class="cls-3" cx="60.78" cy="118.05" r="2.82"/><g class="cls-1"><path class="cls-2" d="M53.94,118.05a2.82,2.82,0,1,1-2.82-2.82A2.82,2.82,0,0,1,53.94,118.05Z"/></g><g class="cls-1"><circle class="cls-2" cx="41.46" cy="118.05" r="2.82"/></g><path class="cls-4" d="M34.62,118.05a2.82,2.82,0,1,1-2.82-2.82A2.82,2.82,0,0,1,34.62,118.05Z"/><circle class="cls-4" cx="22.14" cy="118.05" r="2.82"/><circle class="cls-4" cx="12.48" cy="118.05" r="2.82"/><path class="cls-4" d="M5.64,118.05a2.82,2.82,0,1,1-2.82-2.82A2.82,2.82,0,0,1,5.64,118.05Z"/><text class="cls-5" transform="translate(0 109.21)">PhP </text></g></g></svg>