<svg xmlns="http://www.w3.org/2000/svg" viewBox="0 0 92.58 120.63"><defs><style>.cls-1,.cls-5{opacity:0.27;}.cls-2,.cls-5{fill:#bec3d6;}.cls-3,.cls-4{fill:#8a6c93;}.cls-4{font-size:12px;font-family:Lato-Regular, Lato;}</style></defs><title>languages-group-2</title><g id="Layer_2" data-name="Layer 2"><g id="Layer_1-2" data-name="Layer 1"><g class="cls-1"><circle class="cls-2" cx="89.76" cy="19.14" r="2.82"/></g><g class="cls-1"><path class="cls-2" d="M82.92,19.14a2.82,2.82,0,1,1-2.82-2.82A2.81,2.81,0,0,1,82.92,19.14Z"/></g><g class="cls-1"><path class="cls-2" d="M73.26,19.14a2.82,2.82,0,1,1-2.82-2.82A2.81,2.81,0,0,1,73.26,19.14Z"/></g><g class="cls-1"><circle class="cls-2" cx="60.78" cy="19.14" r="2.82"/></g><g class="cls-1"><path class="cls-2" d="M53.94,19.14a2.82,2.82,0,1,1-2.82-2.82A2.81,2.81,0,0,1,53.94,19.14Z"/></g><g class="cls-1"><circle class="cls-2" cx="41.46" cy="19.14" r="2.82"/></g><g class="cls-1"><path class="cls-2" d="M34.62,19.14a2.82,2.82,0,1,1-2.82-2.82A2.81,2.81,0,0,1,34.62,19.14Z"/></g><g class="cls-1"><circle class="cls-2" cx="22.14" cy="19.14" r="2.82"/></g><circle class="cls-3" cx="12.48" cy="19.14" r="2.82"/><path class="cls-3" d="M5.64,19.14a2.82,2.82,0,1,1-2.82-2.82A2.81,2.81,0,0,1,5.64,19.14Z"/><text class="cls-4" transform="translate(0 10.3)">Node.js</text><g class="cls-1"><circle class="cls-2" cx="89.76" cy="52.03" r="2.82"/></g><g class="cls-1"><path class="cls-2" d="M82.92,52a2.82,2.82,0,1,1-2.82-2.82A2.82,2.82,0,0,1,82.92,52Z"/></g><g class="cls-1"><path class="cls-2" d="M73.26,52a2.82,2.82,0,1,1-2.82-2.82A2.82,2.82,0,0,1,73.26,52Z"/></g><g class="cls-1"><circle class="cls-2" cx="60.78" cy="52.03" r="2.82"/></g><g class="cls-1"><path class="cls-2" d="M53.94,52a2.82,2.82,0,1,1-2.82-2.82A2.82,2.82,0,0,1,53.94,52Z"/></g><g class="cls-1"><circle class="cls-2" cx="41.46" cy="52.03" r="2.82"/></g><g class="cls-1"><path class="cls-2" d="M34.62,52a2.82,2.82,0,1,1-2.82-2.82A2.82,2.82,0,0,1,34.62,52Z"/></g><g class="cls-1"><circle class="cls-2" cx="22.14" cy="52.03" r="2.82"/></g><circle class="cls-3" cx="12.48" cy="52.03" r="2.82"/><path class="cls-3" d="M5.64,52a2.82,2.82,0,1,1-2.82-2.82A2.82,2.82,0,0,1,5.64,52Z"/><text class="cls-4" transform="translate(0 43.19)">MySQL/Mariadb </text><g class="cls-1"><circle class="cls-2" cx="89.76" cy="84.92" r="2.82"/></g><g class="cls-1"><path class="cls-2" d="M82.92,84.92A2.82,2.82,0,1,1,80.1,82.1,2.81,2.81,0,0,1,82.92,84.92Z"/></g><path class="cls-3" d="M73.26,84.92a2.82,2.82,0,1,1-2.82-2.82A2.81,2.81,0,0,1,73.26,84.92Z"/><circle class="cls-3" cx="60.78" cy="84.92" r="2.82"/><path class="cls-3" d="M53.94,84.92a2.82,2.82,0,1,1-2.82-2.82A2.81,2.81,0,0,1,53.94,84.92Z"/><circle class="cls-3" cx="41.46" cy="84.92" r="2.82"/><path class="cls-3" d="M34.62,84.92A2.82,2.82,0,1,1,31.8,82.1,2.81,2.81,0,0,1,34.62,84.92Z"/><circle class="cls-3" cx="22.14" cy="84.92" r="2.82"/><circle class="cls-3" cx="12.48" cy="84.92" r="2.82"/><path class="cls-3" d="M5.64,84.92A2.82,2.82,0,1,1,2.82,82.1,2.81,2.81,0,0,1,5.64,84.92Z"/><text class="cls-4" transform="translate(0 76.08)">Swift </text><circle class="cls-5" cx="89.76" cy="117.81" r="2.82"/><g class="cls-1"><path class="cls-2" d="M82.92,117.81A2.82,2.82,0,1,1,80.1,115,2.82,2.82,0,0,1,82.92,117.81Z"/></g><g class="cls-1"><path class="cls-2" d="M73.26,117.81A2.82,2.82,0,1,1,70.44,115,2.82,2.82,0,0,1,73.26,117.81Z"/></g><g class="cls-1"><circle class="cls-2" cx="60.78" cy="117.81" r="2.82"/></g><g class="cls-1"><path class="cls-2" d="M53.94,117.81A2.82,2.82,0,1,1,51.12,115,2.82,2.82,0,0,1,53.94,117.81Z"/></g><g class="cls-1"><circle class="cls-2" cx="41.46" cy="117.81" r="2.82"/></g><g class="cls-1"><path class="cls-2" d="M34.62,117.81A2.82,2.82,0,1,1,31.8,115,2.82,2.82,0,0,1,34.62,117.81Z"/></g><g class="cls-1"><circle class="cls-2" cx="22.14" cy="117.81" r="2.82"/></g><circle class="cls-3" cx="12.48" cy="117.81" r="2.82"/><path class="cls-3" d="M5.64,117.81A2.82,2.82,0,1,1,2.82,115,2.82,2.82,0,0,1,5.64,117.81Z"/><text class="cls-4" transform="translate(0 108.97)">C </text></g></g></svg>