<svg xmlns="http://www.w3.org/2000/svg" viewBox="0 0 176.34 163.02"><defs><style>.cls-1,.cls-5{fill:#bec3d6;}.cls-1,.cls-4{opacity:0.27;}.cls-2,.cls-3,.cls-6,.cls-9{fill:#8a6c93;}.cls-3,.cls-6{font-size:6.96px;}.cls-3,.cls-6,.cls-9{font-family:Lato-Regular, Lato;}.cls-6{letter-spacing:-0.02em;}.cls-7{letter-spacing:0em;}.cls-8{letter-spacing:-0.02em;}.cls-9{font-size:14px;}</style></defs><title>tools</title><g id="Layer_2" data-name="Layer 2"><g id="Layer_1-2" data-name="Layer 1"><path class="cls-1" d="M0,24.22A24.22,24.22,0,1,1,24.22,48.44,24.25,24.25,0,0,1,0,24.22Zm3.58,0A20.65,20.65,0,1,0,24.22,3.58,20.67,20.67,0,0,0,3.58,24.22Z"/><path class="cls-2" d="M24.22,48.44A24.22,24.22,0,0,0,24.22,0H22.43V3.58h1.79A20.65,20.65,0,1,1,12.27,41.06l-1.45-1L8.74,42.94l1.46,1A24.07,24.07,0,0,0,24.22,48.44Z"/><text class="cls-3" transform="translate(16.01 16.76)">Ligne<tspan x="3.1" y="8.35" xml:space="preserve"> de </tspan><tspan x="-8.52" y="16.7">commande</tspan></text><g class="cls-4"><path class="cls-5" d="M64.14,24.22A24.22,24.22,0,1,1,88.36,48.44,24.25,24.25,0,0,1,64.14,24.22Zm3.58,0A20.65,20.65,0,1,0,88.36,3.58,20.67,20.67,0,0,0,67.72,24.22Z"/></g><path class="cls-2" d="M88.36,48.44A24.22,24.22,0,0,0,88.36,0H86.57V3.58h1.79A20.65,20.65,0,1,1,67.72,24.22a20.93,20.93,0,0,1,.74-5.52L68.94,17,65.49,16,65,17.75A24.25,24.25,0,0,0,88.36,48.44Z"/><text class="cls-3" transform="translate(81.4 26.12)"><tspan xml:space="preserve"> GIT</tspan></text><path class="cls-1" d="M.29,81.59a24.22,24.22,0,1,1,24.22,24.22A24.25,24.25,0,0,1,.29,81.59Zm3.57,0A20.65,20.65,0,1,0,24.51,61,20.68,20.68,0,0,0,3.86,81.59Z"/><path class="cls-2" d="M24.51,105.81a24.22,24.22,0,0,0,0-48.44H22.72V61h1.79a20.64,20.64,0,1,1-12.1,3.91l1.45-1-2.1-2.9L10.31,62a24.23,24.23,0,0,0,14.2,43.85Z"/><text class="cls-6" transform="translate(15.01 83.81)">X<tspan class="cls-7" x="4.35" y="0">code</tspan></text><path class="cls-1" d="M64.14,81.46a24.22,24.22,0,1,1,24.22,24.22A24.26,24.26,0,0,1,64.14,81.46Zm3.58,0A20.65,20.65,0,1,0,88.36,60.81,20.66,20.66,0,0,0,67.72,81.46Z"/><path class="cls-2" d="M88.36,105.68a24.23,24.23,0,0,0,0-48.45H86.57v3.58h1.79a20.62,20.62,0,1,1-12.1,3.91l1.45-1-2.1-2.89-1.45,1a24.23,24.23,0,0,0,14.2,43.85Z"/><text class="cls-3" transform="translate(78.53 79.49)">Cocoa<tspan class="cls-8" x="2.18" y="8.35">P</tspan><tspan x="6.33" y="8.35">ods</tspan></text><g class="cls-4"><path class="cls-5" d="M0,138.8A24.22,24.22,0,1,1,24.22,163,24.25,24.25,0,0,1,0,138.8Zm3.58,0a20.65,20.65,0,1,0,20.64-20.64A20.67,20.67,0,0,0,3.58,138.8Z"/></g><path class="cls-2" d="M24.22,163a24.22,24.22,0,0,0,0-48.44H22.43v3.58h1.79A20.65,20.65,0,1,1,5,146.23l-.64-1.67L1,145.84l.64,1.67A24.37,24.37,0,0,0,24.22,163Z"/><text class="cls-3" transform="translate(11.3 140.54)">VS Code</text><path class="cls-1" d="M64.5,138.8A24.22,24.22,0,1,1,88.72,163,24.25,24.25,0,0,1,64.5,138.8Zm3.58,0a20.65,20.65,0,1,0,20.64-20.64A20.67,20.67,0,0,0,68.08,138.8Z"/><path class="cls-2" d="M88.72,163a24.22,24.22,0,0,0,0-48.44H86.93v3.58h1.79a20.65,20.65,0,1,1-12,37.48l-1.45-1-2.08,2.92,1.46,1A24,24,0,0,0,88.72,163Z"/><text class="cls-3" transform="translate(82.58 140.06)">npm</text><g class="cls-4"><path class="cls-5" d="M127.9,81.59a24.22,24.22,0,1,1,24.22,24.22A24.25,24.25,0,0,1,127.9,81.59Zm3.58,0A20.64,20.64,0,1,0,152.12,61,20.67,20.67,0,0,0,131.48,81.59Z"/></g><path class="cls-2" d="M152.12,105.81a24.22,24.22,0,0,0,0-48.44h-1.79V61h1.79a20.59,20.59,0,1,1-19.9,15.12l.48-1.72-3.45-1-.48,1.73a24.25,24.25,0,0,0,23.35,30.69Z"/><text class="cls-9" transform="translate(142.71 86.55)">XD</text><g class="cls-4"><path class="cls-5" d="M127.9,138.8A24.22,24.22,0,1,1,152.12,163,24.25,24.25,0,0,1,127.9,138.8Zm3.57,0a20.65,20.65,0,1,0,20.65-20.64A20.68,20.68,0,0,0,131.47,138.8Z"/></g><path class="cls-2" d="M150.33,163h1.79a24.22,24.22,0,0,0,0-48.44h-1.79v3.58h1.79a20.65,20.65,0,1,1,0,41.29h-1.79Z"/><text class="cls-9" transform="translate(145.49 142.51)">Ai</text><path class="cls-1" d="M127.82,24.22A24.23,24.23,0,1,1,152,48.44,24.25,24.25,0,0,1,127.82,24.22Zm3.58,0A20.65,20.65,0,1,0,152,3.58,20.67,20.67,0,0,0,131.4,24.22Z"/><path class="cls-2" d="M152,48.44A24.22,24.22,0,1,0,152,0h-1.79V3.58H152A20.64,20.64,0,1,1,140,7.49l1.44-1-2.1-2.9-1.44,1A24.22,24.22,0,0,0,152,48.44Z"/><text class="cls-3" transform="translate(137.71 26.06)">Ms Office</text></g></g></svg>